<svg xmlns="http://www.w3.org/2000/svg" width="32" height="32" viewBox="0 0 32 32">
    <g id="ICON" transform="translate(2910 3850)">
        <rect id="Rectangle_26" width="32" height="32" rx="16" transform="translate(-2910 -3850)" fill="none" opacity="0.001"/>
        <g id="alternate_email-white-48dp" transform="translate(-2904 -3844)" opacity="0.95">
            <path id="Path_27" d="M12,2a10,10,0,1,0,0,20h5V20H12a8.1,8.1,0,0,1-8-8,8.1,8.1,0,0,1,8-8,8.1,8.1,0,0,1,8,8v1.43A1.616,1.616,0,0,1,18.5,15,1.616,1.616,0,0,1,17,13.43V12a5,5,0,1,0-1.46,3.53A3.7,3.7,0,0,0,18.5,17,3.513,3.513,0,0,0,22,13.43V12A10,10,0,0,0,12,2Zm0,13a3,3,0,1,1,3-3A3,3,0,0,1,12,15Z" transform="translate(-2 -2)" fill="#ff5900"/>
        </g>
    </g>
</svg>
