<svg xmlns="http://www.w3.org/2000/svg" width="32" height="32" viewBox="0 0 32 32">
    <g id="ICON" transform="translate(7.25 7.25)" opacity="0.95">
        <rect id="Rectangle_24" width="32" height="32" rx="16" transform="translate(-7.25 -7.25)" fill="none" opacity="0"/>
        <path id="Path_23" d="M6.369,10.249A14.1,14.1,0,0,0,12.5,16.381l2.047-2.047a.925.925,0,0,1,.949-.223,10.615,10.615,0,0,0,3.322.53.933.933,0,0,1,.931.931v3.248a.933.933,0,0,1-.931.931A15.818,15.818,0,0,1,3,3.931.933.933,0,0,1,3.931,3H7.188a.933.933,0,0,1,.931.931,10.571,10.571,0,0,0,.53,3.322.934.934,0,0,1-.233.949Z" transform="translate(-2.625 -2.625)" fill="#ff5900"/>
    </g>
</svg>
