<svg xmlns="http://www.w3.org/2000/svg" width="64" height="64" viewBox="0 0 64 64">
    <g id="ICON_LinkedIn" transform="translate(125 114)">
        <rect id="Rectangle_47" width="64" height="64" transform="translate(-125 -114)" fill="none"/>
        <path id="Path_63" d="M23.994,24H24V15.2c0-4.306-.927-7.623-5.961-7.623a5.226,5.226,0,0,0-4.707,2.587h-.07V7.976H8.489V24h4.97V16.065c0-2.089.4-4.109,2.983-4.109,2.549,0,2.587,2.384,2.587,4.243V24Z" transform="translate(-105 -96)" fill="#e6e6e6"/>
        <path id="Path_64" d="M.4,7.977H5.372V24H.4Z" transform="translate(-105 -96)" fill="#e6e6e6"/>
        <path id="Path_65" d="M2.882,0A2.9,2.9,0,1,0,5.764,2.882,2.883,2.883,0,0,0,2.882,0Z" transform="translate(-105 -96)" fill="#e6e6e6"/>
    </g>
</svg>
